<?xml version="1.0" encoding="UTF-8"?>
<svg id="Layer_1" xmlns="http://www.w3.org/2000/svg" xmlns:serif="http://www.serif.com/" version="1.1" viewBox="0 0 800 800">
  <!-- Generator: Adobe Illustrator 29.6.0, SVG Export Plug-In . SVG Version: 2.1.1 Build 207)  -->
  <defs>
    <style>
      .st0 {
        fill: #8c1c1c;
      }
    </style>
  </defs>
  <g>
    <path d="M138,236.31v6.9h19.32v57.02c0,4.97,2.59,7.45,7.78,7.45h6.62v-64.47h11.59c5.19,0,7.78-2.48,7.78-7.45v-6.9h-45.37c-5.15,0-7.73,2.48-7.73,7.45Z"/>
    <path d="M210.08,307.68h6.68v-32.29h31.41v24.84c0,4.97,2.6,7.45,7.78,7.45h6.62v-78.82h-6.62c-5.19,0-7.78,2.48-7.78,7.45v24.73h-31.41v-32.18h-6.68c-5.15,0-7.73,2.48-7.73,7.45v63.91c0,4.97,2.58,7.45,7.73,7.45Z"/>
    <path d="M292.81,286.48v-11.09h30.91c5.19,0,7.78-2.48,7.78-7.45v-6.9h-38.69v-10.99c0-2.06.57-3.71,1.71-4.97,1.14-1.25,2.63-1.88,4.47-1.88h24.73c5.19,0,7.78-2.48,7.78-7.45v-6.9h-32.57c-2.98,0-5.71.5-8.19,1.49-2.49.99-4.65,2.41-6.49,4.25-1.84,1.84-3.28,4.08-4.31,6.71-1.03,2.63-1.54,5.55-1.54,8.75v36.43c0,3.24.52,6.16,1.57,8.78,1.05,2.61,2.48,4.84,4.3,6.68,1.82,1.84,3.98,3.26,6.49,4.25,2.5.99,5.22,1.49,8.17,1.49h32.57v-6.9c0-5-2.59-7.51-7.78-7.51h-24.73c-1.84,0-3.33-.61-4.47-1.85-1.14-1.23-1.71-2.88-1.71-4.94Z"/>
    <path d="M155.44,389.14v-25.34c0-1.91.44-3.73,1.33-5.44.88-1.71,2.1-3.21,3.64-4.5,1.55-1.29,3.35-2.31,5.41-3.06,2.06-.76,4.25-1.13,6.57-1.13,2.76,0,5.34.5,7.76,1.49,2.41.99,4.44,2.56,6.1,4.69,1.36,1.58,2.88,2.51,4.55,2.79,1.67.28,3.32.03,4.94-.74l6.29-3.15c-1.32-3.06-3.05-5.79-5.19-8.2-2.13-2.41-4.5-4.45-7.09-6.13-2.59-1.68-5.38-2.95-8.36-3.84-2.98-.89-5.98-1.33-9-1.33-8.57,0-15.84,2.72-21.8,8.17-6.33,5.67-9.49,12.46-9.49,20.37v25.34c0,7.95,3.16,14.76,9.49,20.42,6.03,5.37,13.3,8.06,21.8,8.06,3.05,0,6.07-.43,9.05-1.3,2.98-.87,5.77-2.13,8.36-3.81,2.59-1.67,4.95-3.73,7.07-6.15,2.11-2.43,3.84-5.15,5.16-8.17l-6.07-3.09c-1.84-.92-3.53-1.16-5.08-.72-1.55.44-3,1.31-4.36,2.59-2.61,2.36-5.04,3.99-7.29,4.91-2.24.92-4.53,1.38-6.84,1.38s-4.44-.38-6.49-1.13c-2.04-.76-3.84-1.78-5.41-3.09-1.56-1.3-2.8-2.82-3.7-4.53-.9-1.71-1.35-3.51-1.35-5.38Z"/>
    <path d="M222.98,415.97h6.62v-27.71h16.01c2.57,0,4.29.94,5.13,2.82l8.94,20.37c.63,1.44,1.64,2.55,3.04,3.34,1.4.79,3.03,1.19,4.91,1.19h9.6l-10.21-23.4c-.55-1.32-1.16-2.51-1.82-3.56-.66-1.05-1.36-2-2.1-2.84,2.14-1.07,4.06-2.42,5.77-4.06,1.71-1.64,3.16-3.48,4.36-5.52,1.2-2.04,2.11-4.24,2.73-6.6.63-2.36.94-4.8.94-7.34,0-6.77-2.14-12.64-6.41-17.61-4.6-5.26-10.12-7.89-16.56-7.89h-30.97c-5.15,0-7.73,2.49-7.73,7.45v63.92c0,4.97,2.57,7.45,7.73,7.45ZM229.61,373.85v-22.35h24.34c1.14,0,2.23.3,3.28.91,1.05.61,1.96,1.41,2.73,2.4.77.99,1.39,2.17,1.85,3.53.46,1.36.69,2.8.69,4.3s-.23,3-.69,4.36c-.46,1.36-1.07,2.55-1.85,3.56-.77,1.01-1.68,1.81-2.73,2.4-1.05.59-2.14.88-3.28.88h-24.34Z"/>
    <path d="M305.37,394.77v-11.09h30.91c5.19,0,7.78-2.49,7.78-7.45v-6.9h-38.69v-10.98c0-2.06.57-3.72,1.71-4.97s2.63-1.88,4.47-1.88h24.73c5.19,0,7.78-2.49,7.78-7.45v-6.9h-32.57c-2.98,0-5.71.5-8.2,1.49-2.48.99-4.65,2.41-6.48,4.25-1.84,1.84-3.28,4.07-4.31,6.71-1.03,2.63-1.55,5.55-1.55,8.75v36.43c0,3.24.53,6.16,1.57,8.78,1.05,2.61,2.49,4.84,4.31,6.68,1.82,1.84,3.98,3.26,6.48,4.25,2.5.99,5.23,1.49,8.17,1.49h32.57v-6.9c0-5.01-2.6-7.51-7.78-7.51h-24.73c-1.84,0-3.33-.62-4.47-1.85-1.14-1.23-1.71-2.88-1.71-4.94Z"/>
    <path d="M387.6,352.83l9.77,27.38h-19.48l9.71-27.38ZM372.8,394.5h29.59l5.74,16.17c.63,1.73,1.55,3.05,2.79,3.95,1.23.9,2.73,1.35,4.5,1.35h9.82l-25.67-72.36c-.44-1.1-1.08-2.09-1.91-2.95-.83-.86-1.78-1.57-2.87-2.13-1.09-.55-2.24-.97-3.48-1.27-1.23-.3-2.49-.44-3.78-.44s-2.56.14-3.81.41c-1.25.28-2.4.7-3.45,1.27-1.05.57-1.99,1.29-2.82,2.15-.83.87-1.45,1.85-1.85,2.95l-23.13,65.19c-.33.92-.48,1.8-.44,2.65.04.85.25,1.61.63,2.29.39.68.96,1.22,1.71,1.63.76.41,1.68.61,2.79.61h8c.59-1.65,1.2-3.38,1.85-5.19.64-1.8,1.29-3.62,1.93-5.47.64-1.84,1.3-3.68,1.96-5.52.66-1.84,1.29-3.61,1.88-5.3Z"/>
    <path d="M428.31,344.6v6.9h19.32v57.02c0,4.97,2.6,7.45,7.78,7.45h6.62v-64.47h11.59c5.19,0,7.78-2.49,7.78-7.45v-6.9h-45.37c-5.15,0-7.73,2.49-7.73,7.45Z"/>
    <path d="M500.38,415.97h6.68v-78.82h-6.68c-5.15,0-7.73,2.49-7.73,7.45v63.92c0,4.97,2.58,7.45,7.73,7.45Z"/>
    <path d="M571.68,342.45l-20.53,57.85h-.05c-3.75-10.56-7.49-21.07-11.2-31.52-3.72-10.45-7.43-20.99-11.15-31.63h-8c-1.07,0-1.98.22-2.73.66-.76.44-1.33,1.01-1.71,1.71-.38.7-.6,1.49-.63,2.37-.04.88.09,1.73.39,2.54l23.13,65.08c.4,1.1,1.02,2.09,1.85,2.95.83.86,1.78,1.58,2.84,2.15s2.23.99,3.48,1.27c1.25.28,2.5.41,3.75.41s2.55-.14,3.78-.41c1.23-.28,2.39-.7,3.48-1.27s2.04-1.28,2.87-2.13c.83-.85,1.46-1.82,1.91-2.93l25.67-72.42h-9.82c-1.77,0-3.28.46-4.53,1.38-1.25.92-2.17,2.23-2.76,3.92Z"/>
    <path d="M610.79,394.77v-11.09h30.91c5.19,0,7.78-2.49,7.78-7.45v-6.9h-38.69v-10.98c0-2.06.57-3.72,1.71-4.97,1.14-1.25,2.63-1.88,4.47-1.88h24.73c5.19,0,7.78-2.49,7.78-7.45v-6.9h-32.56c-2.98,0-5.71.5-8.2,1.49-2.49.99-4.65,2.41-6.49,4.25-1.84,1.84-3.28,4.07-4.3,6.71-1.03,2.63-1.55,5.55-1.55,8.75v36.43c0,3.24.53,6.16,1.57,8.78,1.05,2.61,2.48,4.84,4.3,6.68,1.82,1.84,3.98,3.26,6.49,4.25s5.22,1.49,8.17,1.49h32.56v-6.9c0-5.01-2.59-7.51-7.78-7.51h-24.73c-1.84,0-3.33-.62-4.47-1.85-1.14-1.23-1.71-2.88-1.71-4.94Z"/>
    <path d="M170.84,461.12l9.77,27.38h-19.48l9.71-27.38ZM156.05,502.79h29.58l5.74,16.17c.63,1.73,1.55,3.05,2.79,3.95,1.23.9,2.73,1.35,4.5,1.35h9.83l-25.67-72.36c-.44-1.1-1.08-2.09-1.91-2.95-.83-.87-1.78-1.57-2.87-2.13-1.09-.55-2.24-.98-3.48-1.27-1.23-.3-2.49-.44-3.78-.44s-2.56.14-3.81.41c-1.25.27-2.4.7-3.45,1.27-1.05.57-1.99,1.29-2.81,2.15-.83.86-1.45,1.85-1.85,2.95l-23.13,65.19c-.33.92-.48,1.8-.44,2.65.04.85.25,1.61.64,2.29.39.68.96,1.22,1.71,1.63.76.4,1.68.61,2.79.61h8c.59-1.66,1.2-3.39,1.85-5.19.64-1.8,1.29-3.62,1.93-5.46.64-1.84,1.3-3.68,1.96-5.52.66-1.84,1.29-3.61,1.88-5.3Z"/>
    <path d="M216.09,452.89v44.55c0,7.95,3.18,14.75,9.55,20.42,6.03,5.37,13.3,8.06,21.8,8.06s15.67-2.69,21.75-8.06c6.33-5.7,9.49-12.51,9.49-20.42v-52h-6.62c-5.15,0-7.73,2.48-7.73,7.45v44.55c0,1.91-.46,3.73-1.38,5.44-.92,1.71-2.15,3.21-3.7,4.5-1.55,1.29-3.34,2.31-5.38,3.06-2.04.76-4.19,1.13-6.43,1.13s-4.5-.37-6.54-1.1c-2.04-.74-3.84-1.75-5.38-3.04-1.54-1.29-2.77-2.79-3.67-4.5-.9-1.71-1.35-3.54-1.35-5.49v-52h-6.68c-5.15,0-7.73,2.48-7.73,7.45Z"/>
    <path d="M289.45,452.89v6.9h19.32v57.02c0,4.97,2.6,7.45,7.78,7.45h6.62v-64.47h11.59c5.19,0,7.78-2.48,7.78-7.45v-6.9h-45.37c-5.15,0-7.73,2.48-7.73,7.45Z"/>
    <path d="M361.53,524.26h6.68v-32.29h31.41v24.84c0,4.97,2.6,7.45,7.78,7.45h6.62v-78.82h-6.62c-5.19,0-7.78,2.48-7.78,7.45v24.73h-31.41v-32.18h-6.68c-5.15,0-7.73,2.48-7.73,7.45v63.92c0,4.97,2.58,7.45,7.73,7.45Z"/>
    <path d="M495.76,496.72v-23.96c0-8.24-3.46-15.25-10.38-21.03-3.27-2.76-6.85-4.81-10.73-6.15-3.88-1.34-8.07-2.01-12.56-2.01-9.05,0-16.82,2.72-23.29,8.17-6.92,5.81-10.38,12.82-10.38,21.03v23.96c0,8.35,3.46,15.4,10.38,21.14,6.44,5.37,14.2,8.06,23.29,8.06s16.71-2.69,23.29-8.06c6.92-5.7,10.38-12.75,10.38-21.14ZM442.77,496.72v-23.96c0-1.99.51-3.88,1.55-5.69,1.03-1.8,2.43-3.39,4.19-4.75,1.77-1.36,3.82-2.43,6.16-3.2,2.34-.77,4.81-1.16,7.42-1.16s5.03.39,7.37,1.16c2.34.77,4.4,1.83,6.18,3.18,1.78,1.34,3.2,2.92,4.25,4.72,1.05,1.8,1.57,3.72,1.57,5.74v23.96c0,2.06-.53,3.99-1.57,5.79-1.05,1.81-2.47,3.38-4.25,4.72-1.79,1.34-3.85,2.4-6.18,3.17-2.34.77-4.79,1.16-7.37,1.16s-5.09-.38-7.42-1.16c-2.34-.77-4.39-1.83-6.16-3.17-1.76-1.34-3.16-2.92-4.19-4.72-1.03-1.8-1.55-3.73-1.55-5.79Z"/>
    <path d="M517.89,524.26h6.62v-27.71h16.01c2.57,0,4.29.94,5.13,2.82l8.94,20.37c.63,1.43,1.64,2.55,3.03,3.34,1.4.79,3.04,1.19,4.91,1.19h9.6l-10.21-23.4c-.55-1.33-1.16-2.51-1.82-3.56-.66-1.05-1.36-2-2.1-2.84,2.13-1.07,4.06-2.42,5.77-4.06,1.71-1.64,3.16-3.48,4.36-5.52,1.2-2.04,2.11-4.24,2.73-6.59.63-2.36.94-4.8.94-7.34,0-6.77-2.13-12.64-6.4-17.61-4.6-5.26-10.12-7.89-16.56-7.89h-30.96c-5.15,0-7.73,2.48-7.73,7.45v63.92c0,4.97,2.58,7.45,7.73,7.45ZM524.51,482.15v-22.36h24.34c1.14,0,2.24.3,3.28.91,1.05.61,1.96,1.41,2.73,2.4.77.99,1.39,2.17,1.85,3.53.46,1.36.69,2.8.69,4.31s-.23,3-.69,4.36c-.46,1.36-1.08,2.55-1.85,3.56-.77,1.01-1.68,1.81-2.73,2.4-1.05.59-2.14.88-3.28.88h-24.34Z"/>
    <path d="M594.22,524.26h6.68v-78.82h-6.68c-5.15,0-7.73,2.48-7.73,7.45v63.92c0,4.97,2.57,7.45,7.73,7.45Z"/>
    <path d="M612.21,452.89v6.9h19.32v57.02c0,4.97,2.59,7.45,7.78,7.45h6.62v-64.47h11.59c5.19,0,7.78-2.48,7.78-7.45v-6.9h-45.37c-5.15,0-7.73,2.48-7.73,7.45Z"/>
    <path d="M670.27,453.83l24.62,40.4v22.57c0,4.97,2.57,7.45,7.73,7.45h6.62v-30.03l29.81-48.79h-11.31c-1.88,0-3.51.4-4.89,1.19-1.38.79-2.55,1.98-3.51,3.56-2.83,4.64-5.61,9.21-8.33,13.72-2.72,4.51-5.52,9.08-8.39,13.72h-1.16l-19.65-32.18h-7.95c-1.33,0-2.37.28-3.12.83-.76.55-1.25,1.26-1.49,2.13-.24.86-.26,1.78-.05,2.76.2.97.56,1.87,1.07,2.68Z"/>
  </g>
  <path class="st0" d="M114.61,485.64c0,16.85-13.66,30.51-30.51,30.51s-30.51-13.66-30.51-30.51,13.66-30.51,30.51-30.51,30.51,13.66,30.51,30.51"/>
</svg>